<svg width="205" height="15" viewBox="0 0 205 15" fill="none" xmlns="http://www.w3.org/2000/svg">
<path d="M4.123 1.2H5.341L8.911 11H7.868L7.105 8.9H2.366L1.603 11H0.56L4.123 1.2ZM2.723 7.92H6.741L4.732 2.404L2.723 7.92ZM10.2189 11V0.499999H11.1989V11H10.2189ZM12.8849 11V4H13.8649V4.966C14.1123 4.61133 14.4343 4.329 14.8309 4.119C15.2276 3.909 15.6593 3.804 16.1259 3.804C16.3966 3.804 16.6579 3.839 16.9099 3.909L16.5109 4.882C16.3149 4.82133 16.1236 4.791 15.9369 4.791C15.5589 4.791 15.2113 4.88433 14.8939 5.071C14.5813 5.25767 14.3316 5.50733 14.1449 5.82C13.9583 6.13267 13.8649 6.48033 13.8649 6.863V11H12.8849ZM20.504 11.182C19.86 11.182 19.272 11.0163 18.74 10.685C18.2127 10.3537 17.7903 9.91033 17.473 9.355C17.1603 8.795 17.004 8.17667 17.004 7.5C17.004 6.98667 17.095 6.50833 17.277 6.065C17.459 5.617 17.7087 5.225 18.026 4.889C18.348 4.54833 18.7213 4.28233 19.146 4.091C19.5707 3.89967 20.0233 3.804 20.504 3.804C21.022 3.804 21.498 3.90667 21.932 4.112C22.3707 4.31733 22.7463 4.60433 23.059 4.973C23.3763 5.34167 23.6143 5.77333 23.773 6.268C23.9363 6.76267 24.004 7.297 23.976 7.871H18.04C18.096 8.31433 18.236 8.711 18.46 9.061C18.6887 9.411 18.978 9.68867 19.328 9.894C19.6827 10.0947 20.0747 10.1973 20.504 10.202C20.9707 10.202 21.3907 10.0807 21.764 9.838C22.142 9.59533 22.4453 9.26167 22.674 8.837L23.668 9.068C23.388 9.68867 22.9657 10.1973 22.401 10.594C21.8363 10.986 21.204 11.182 20.504 11.182ZM18.012 7.08H22.989C22.9563 6.646 22.8233 6.24933 22.59 5.89C22.3613 5.526 22.065 5.23667 21.701 5.022C21.337 4.80267 20.938 4.693 20.504 4.693C20.07 4.693 19.6733 4.80033 19.314 5.015C18.9547 5.225 18.6607 5.512 18.432 5.876C18.2033 6.23533 18.0633 6.63667 18.012 7.08ZM30.8616 4H31.8416V11H30.8616L30.8266 9.698C30.5979 10.1413 30.2782 10.5007 29.8676 10.776C29.4569 11.0467 28.9669 11.182 28.3976 11.182C27.8842 11.182 27.4036 11.0863 26.9556 10.895C26.5076 10.699 26.1132 10.4307 25.7726 10.09C25.4319 9.74933 25.1659 9.355 24.9746 8.907C24.7832 8.459 24.6876 7.97833 24.6876 7.465C24.6876 6.961 24.7809 6.48733 24.9676 6.044C25.1589 5.60067 25.4202 5.211 25.7516 4.875C26.0876 4.539 26.4749 4.27767 26.9136 4.091C27.3569 3.89967 27.8306 3.804 28.3346 3.804C28.9179 3.804 29.4266 3.944 29.8606 4.224C30.2946 4.49933 30.6399 4.861 30.8966 5.309L30.8616 4ZM28.3766 10.23C28.8759 10.23 29.3052 10.1087 29.6646 9.866C30.0239 9.61867 30.2992 9.28733 30.4906 8.872C30.6866 8.45667 30.7846 7.99933 30.7846 7.5C30.7846 6.98667 30.6866 6.52467 30.4906 6.114C30.2946 5.69867 30.0169 5.36967 29.6576 5.127C29.2982 4.88433 28.8712 4.763 28.3766 4.763C27.8819 4.763 27.4292 4.88667 27.0186 5.134C26.6126 5.37667 26.2882 5.70567 26.0456 6.121C25.8076 6.53633 25.6886 6.996 25.6886 7.5C25.6886 8.00867 25.8122 8.47067 26.0596 8.886C26.3069 9.29667 26.6336 9.62333 27.0396 9.866C27.4502 10.1087 27.8959 10.23 28.3766 10.23ZM38.8666 0.499999H39.8466V11H38.8666V9.691C38.624 10.139 38.2903 10.5007 37.8656 10.776C37.4456 11.0467 36.9463 11.182 36.3676 11.182C35.859 11.182 35.383 11.0863 34.9396 10.895C34.4963 10.7037 34.1043 10.44 33.7636 10.104C33.4276 9.76333 33.164 9.37133 32.9726 8.928C32.7813 8.48467 32.6856 8.00867 32.6856 7.5C32.6856 6.99133 32.7813 6.51533 32.9726 6.072C33.164 5.624 33.4276 5.232 33.7636 4.896C34.1043 4.55533 34.4963 4.28933 34.9396 4.098C35.383 3.90667 35.859 3.811 36.3676 3.811C36.9463 3.811 37.4456 3.94867 37.8656 4.224C38.2903 4.49467 38.624 4.85167 38.8666 5.295V0.499999ZM36.3746 10.23C36.874 10.23 37.3033 10.1087 37.6626 9.866C38.022 9.61867 38.2973 9.28733 38.4886 8.872C38.6846 8.45667 38.7826 7.99933 38.7826 7.5C38.7826 6.98667 38.6846 6.52467 38.4886 6.114C38.2926 5.69867 38.015 5.36967 37.6556 5.127C37.2963 4.88433 36.8693 4.763 36.3746 4.763C35.88 4.763 35.4296 4.88667 35.0236 5.134C34.6176 5.37667 34.2933 5.70567 34.0506 6.121C33.808 6.53633 33.6866 6.996 33.6866 7.5C33.6866 8.00867 33.8103 8.47067 34.0576 8.886C34.305 9.29667 34.6316 9.62333 35.0376 9.866C35.4483 10.1087 35.894 10.23 36.3746 10.23ZM46.1174 4H47.1534L43.3244 14.5H42.2814L43.5554 11L41.0424 4H42.1134L44.0454 9.649L46.1174 4ZM58.0221 6.667V11H57.0421V6.863C57.0421 6.48033 56.9488 6.13267 56.7621 5.82C56.5755 5.50733 56.3258 5.25767 56.0131 5.071C55.7005 4.88433 55.3528 4.791 54.9701 4.791C54.5921 4.791 54.2445 4.88433 53.9271 5.071C53.6145 5.25767 53.3648 5.50733 53.1781 5.82C52.9915 6.13267 52.8981 6.48033 52.8981 6.863V11H51.9181V0.499999H52.8981V4.966C53.1455 4.61133 53.4675 4.329 53.8641 4.119C54.2608 3.909 54.6925 3.804 55.1591 3.804C55.6865 3.804 56.1671 3.93233 56.6011 4.189C57.0351 4.44567 57.3805 4.791 57.6371 5.225C57.8938 5.659 58.0221 6.13967 58.0221 6.667ZM65.0413 4H66.0213V11H65.0413L65.0063 9.698C64.7776 10.1413 64.4579 10.5007 64.0473 10.776C63.6366 11.0467 63.1466 11.182 62.5773 11.182C62.0639 11.182 61.5833 11.0863 61.1353 10.895C60.6873 10.699 60.2929 10.4307 59.9523 10.09C59.6116 9.74933 59.3456 9.355 59.1543 8.907C58.9629 8.459 58.8673 7.97833 58.8673 7.465C58.8673 6.961 58.9606 6.48733 59.1473 6.044C59.3386 5.60067 59.5999 5.211 59.9313 4.875C60.2673 4.539 60.6546 4.27767 61.0933 4.091C61.5366 3.89967 62.0103 3.804 62.5143 3.804C63.0976 3.804 63.6063 3.944 64.0403 4.224C64.4743 4.49933 64.8196 4.861 65.0763 5.309L65.0413 4ZM62.5563 10.23C63.0556 10.23 63.4849 10.1087 63.8443 9.866C64.2036 9.61867 64.4789 9.28733 64.6703 8.872C64.8663 8.45667 64.9643 7.99933 64.9643 7.5C64.9643 6.98667 64.8663 6.52467 64.6703 6.114C64.4743 5.69867 64.1966 5.36967 63.8373 5.127C63.4779 4.88433 63.0509 4.763 62.5563 4.763C62.0616 4.763 61.6089 4.88667 61.1983 5.134C60.7923 5.37667 60.4679 5.70567 60.2253 6.121C59.9873 6.53633 59.8683 6.996 59.8683 7.5C59.8683 8.00867 59.9919 8.47067 60.2393 8.886C60.4866 9.29667 60.8133 9.62333 61.2193 9.866C61.6299 10.1087 62.0756 10.23 62.5563 10.23ZM70.6663 11H69.4203L66.8653 3.979H67.9083L70.0433 9.852L72.1783 3.979H73.2213L70.6663 11ZM77.1876 11.182C76.5436 11.182 75.9556 11.0163 75.4236 10.685C74.8962 10.3537 74.4739 9.91033 74.1566 9.355C73.8439 8.795 73.6876 8.17667 73.6876 7.5C73.6876 6.98667 73.7786 6.50833 73.9606 6.065C74.1426 5.617 74.3922 5.225 74.7096 4.889C75.0316 4.54833 75.4049 4.28233 75.8296 4.091C76.2542 3.89967 76.7069 3.804 77.1876 3.804C77.7056 3.804 78.1816 3.90667 78.6156 4.112C79.0542 4.31733 79.4299 4.60433 79.7426 4.973C80.0599 5.34167 80.2979 5.77333 80.4566 6.268C80.6199 6.76267 80.6876 7.297 80.6596 7.871H74.7236C74.7796 8.31433 74.9196 8.711 75.1436 9.061C75.3722 9.411 75.6616 9.68867 76.0116 9.894C76.3662 10.0947 76.7582 10.1973 77.1876 10.202C77.6542 10.202 78.0742 10.0807 78.4476 9.838C78.8256 9.59533 79.1289 9.26167 79.3576 8.837L80.3516 9.068C80.0716 9.68867 79.6492 10.1973 79.0846 10.594C78.5199 10.986 77.8876 11.182 77.1876 11.182ZM74.6956 7.08H79.6726C79.6399 6.646 79.5069 6.24933 79.2736 5.89C79.0449 5.526 78.7486 5.23667 78.3846 5.022C78.0206 4.80267 77.6216 4.693 77.1876 4.693C76.7536 4.693 76.3569 4.80033 75.9976 5.015C75.6382 5.225 75.3442 5.512 75.1156 5.876C74.8869 6.23533 74.7469 6.63667 74.6956 7.08ZM91.0452 4H92.0252V11H91.0452L91.0102 9.698C90.7815 10.1413 90.4618 10.5007 90.0512 10.776C89.6405 11.0467 89.1505 11.182 88.5812 11.182C88.0678 11.182 87.5872 11.0863 87.1392 10.895C86.6912 10.699 86.2968 10.4307 85.9562 10.09C85.6155 9.74933 85.3495 9.355 85.1582 8.907C84.9668 8.459 84.8712 7.97833 84.8712 7.465C84.8712 6.961 84.9645 6.48733 85.1512 6.044C85.3425 5.60067 85.6038 5.211 85.9352 4.875C86.2712 4.539 86.6585 4.27767 87.0972 4.091C87.5405 3.89967 88.0142 3.804 88.5182 3.804C89.1015 3.804 89.6102 3.944 90.0442 4.224C90.4782 4.49933 90.8235 4.861 91.0802 5.309L91.0452 4ZM88.5602 10.23C89.0595 10.23 89.4888 10.1087 89.8482 9.866C90.2075 9.61867 90.4828 9.28733 90.6742 8.872C90.8702 8.45667 90.9682 7.99933 90.9682 7.5C90.9682 6.98667 90.8702 6.52467 90.6742 6.114C90.4782 5.69867 90.2005 5.36967 89.8412 5.127C89.4818 4.88433 89.0548 4.763 88.5602 4.763C88.0655 4.763 87.6128 4.88667 87.2022 5.134C86.7962 5.37667 86.4718 5.70567 86.2292 6.121C85.9912 6.53633 85.8722 6.996 85.8722 7.5C85.8722 8.00867 85.9958 8.47067 86.2432 8.886C86.4905 9.29667 86.8172 9.62333 87.2232 9.866C87.6338 10.1087 88.0795 10.23 88.5602 10.23ZM99.5299 6.667V11H98.5499V6.863C98.5499 6.48033 98.4566 6.13267 98.2699 5.82C98.0833 5.50733 97.8336 5.25767 97.5209 5.071C97.2083 4.88433 96.8606 4.791 96.4779 4.791C96.0999 4.791 95.7523 4.88433 95.4349 5.071C95.1223 5.25767 94.8726 5.50733 94.6859 5.82C94.4993 6.13267 94.4059 6.48033 94.4059 6.863V11H93.4259V4H94.4059V4.966C94.6533 4.61133 94.9753 4.329 95.3719 4.119C95.7686 3.909 96.2003 3.804 96.6669 3.804C97.1943 3.804 97.6749 3.93233 98.1089 4.189C98.5429 4.44567 98.8883 4.791 99.1449 5.225C99.4016 5.659 99.5299 6.13967 99.5299 6.667ZM110.049 4H111.029V11H110.049L110.014 9.698C109.785 10.1413 109.466 10.5007 109.055 10.776C108.644 11.0467 108.154 11.182 107.585 11.182C107.072 11.182 106.591 11.0863 106.143 10.895C105.695 10.699 105.301 10.4307 104.96 10.09C104.619 9.74933 104.353 9.355 104.162 8.907C103.971 8.459 103.875 7.97833 103.875 7.465C103.875 6.961 103.968 6.48733 104.155 6.044C104.346 5.60067 104.608 5.211 104.939 4.875C105.275 4.539 105.662 4.27767 106.101 4.091C106.544 3.89967 107.018 3.804 107.522 3.804C108.105 3.804 108.614 3.944 109.048 4.224C109.482 4.49933 109.827 4.861 110.084 5.309L110.049 4ZM107.564 10.23C108.063 10.23 108.493 10.1087 108.852 9.866C109.211 9.61867 109.487 9.28733 109.678 8.872C109.874 8.45667 109.972 7.99933 109.972 7.5C109.972 6.98667 109.874 6.52467 109.678 6.114C109.482 5.69867 109.204 5.36967 108.845 5.127C108.486 4.88433 108.059 4.763 107.564 4.763C107.069 4.763 106.617 4.88667 106.206 5.134C105.8 5.37667 105.476 5.70567 105.233 6.121C104.995 6.53633 104.876 6.996 104.876 7.5C104.876 8.00867 105 8.47067 105.247 8.886C105.494 9.29667 105.821 9.62333 106.227 9.866C106.638 10.1087 107.083 10.23 107.564 10.23ZM117.291 9.243L118.166 9.719C117.849 10.1623 117.445 10.517 116.955 10.783C116.47 11.049 115.942 11.182 115.373 11.182C114.729 11.182 114.141 11.0163 113.609 10.685C113.082 10.3537 112.659 9.91033 112.342 9.355C112.029 8.795 111.873 8.17667 111.873 7.5C111.873 6.98667 111.964 6.50833 112.146 6.065C112.328 5.617 112.578 5.225 112.895 4.889C113.217 4.54833 113.59 4.28233 114.015 4.091C114.44 3.89967 114.892 3.804 115.373 3.804C115.942 3.804 116.47 3.937 116.955 4.203C117.445 4.469 117.849 4.826 118.166 5.274L117.291 5.743C117.048 5.435 116.757 5.19933 116.416 5.036C116.075 4.868 115.728 4.784 115.373 4.784C114.902 4.784 114.475 4.91 114.092 5.162C113.709 5.40933 113.406 5.73833 113.182 6.149C112.963 6.55967 112.853 7.01 112.853 7.5C112.853 7.99 112.965 8.44033 113.189 8.851C113.418 9.26167 113.723 9.59067 114.106 9.838C114.489 10.0807 114.911 10.202 115.373 10.202C115.756 10.202 116.115 10.1133 116.451 9.936C116.787 9.75867 117.067 9.52767 117.291 9.243ZM124.332 9.243L125.207 9.719C124.89 10.1623 124.486 10.517 123.996 10.783C123.511 11.049 122.983 11.182 122.414 11.182C121.77 11.182 121.182 11.0163 120.65 10.685C120.123 10.3537 119.7 9.91033 119.383 9.355C119.07 8.795 118.914 8.17667 118.914 7.5C118.914 6.98667 119.005 6.50833 119.187 6.065C119.369 5.617 119.619 5.225 119.936 4.889C120.258 4.54833 120.631 4.28233 121.056 4.091C121.481 3.89967 121.933 3.804 122.414 3.804C122.983 3.804 123.511 3.937 123.996 4.203C124.486 4.469 124.89 4.826 125.207 5.274L124.332 5.743C124.089 5.435 123.798 5.19933 123.457 5.036C123.116 4.868 122.769 4.784 122.414 4.784C121.943 4.784 121.516 4.91 121.133 5.162C120.75 5.40933 120.447 5.73833 120.223 6.149C120.004 6.55967 119.894 7.01 119.894 7.5C119.894 7.99 120.006 8.44033 120.23 8.851C120.459 9.26167 120.764 9.59067 121.147 9.838C121.53 10.0807 121.952 10.202 122.414 10.202C122.797 10.202 123.156 10.1133 123.492 9.936C123.828 9.75867 124.108 9.52767 124.332 9.243ZM129.455 11.182C128.811 11.182 128.223 11.0163 127.691 10.685C127.164 10.3537 126.741 9.91033 126.424 9.355C126.111 8.795 125.955 8.17667 125.955 7.5C125.955 6.98667 126.046 6.50833 126.228 6.065C126.41 5.617 126.66 5.225 126.977 4.889C127.299 4.54833 127.672 4.28233 128.097 4.091C128.522 3.89967 128.974 3.804 129.455 3.804C130.099 3.804 130.685 3.96967 131.212 4.301C131.744 4.63233 132.166 5.078 132.479 5.638C132.796 6.198 132.955 6.81867 132.955 7.5C132.955 8.00867 132.864 8.48467 132.682 8.928C132.5 9.37133 132.248 9.76333 131.926 10.104C131.609 10.44 131.238 10.7037 130.813 10.895C130.393 11.0863 129.94 11.182 129.455 11.182ZM129.455 10.202C129.931 10.202 130.358 10.0783 130.736 9.831C131.119 9.579 131.42 9.24767 131.639 8.837C131.863 8.42633 131.975 7.98067 131.975 7.5C131.975 7.01 131.863 6.55967 131.639 6.149C131.415 5.73367 131.112 5.40233 130.729 5.155C130.351 4.90767 129.926 4.784 129.455 4.784C128.979 4.784 128.55 4.91 128.167 5.162C127.789 5.40933 127.488 5.73833 127.264 6.149C127.045 6.55967 126.935 7.01 126.935 7.5C126.935 8.004 127.049 8.46133 127.278 8.872C127.507 9.278 127.812 9.60233 128.195 9.845C128.578 10.083 128.998 10.202 129.455 10.202ZM133.792 8.319V4H134.772V8.123C134.772 8.50567 134.866 8.85333 135.052 9.166C135.239 9.47867 135.489 9.72833 135.801 9.915C136.119 10.1017 136.466 10.195 136.844 10.195C137.227 10.195 137.572 10.1017 137.88 9.915C138.193 9.72833 138.443 9.47867 138.629 9.166C138.816 8.85333 138.909 8.50567 138.909 8.123V4H139.889L139.896 11H138.916L138.909 10.02C138.662 10.3747 138.34 10.657 137.943 10.867C137.551 11.077 137.122 11.182 136.655 11.182C136.128 11.182 135.647 11.0537 135.213 10.797C134.779 10.5403 134.434 10.195 134.177 9.761C133.921 9.327 133.792 8.84633 133.792 8.319ZM147.395 6.667V11H146.415V6.863C146.415 6.48033 146.322 6.13267 146.135 5.82C145.949 5.50733 145.699 5.25767 145.386 5.071C145.074 4.88433 144.726 4.791 144.343 4.791C143.965 4.791 143.618 4.88433 143.3 5.071C142.988 5.25767 142.738 5.50733 142.551 5.82C142.365 6.13267 142.271 6.48033 142.271 6.863V11H141.291V4H142.271V4.966C142.519 4.61133 142.841 4.329 143.237 4.119C143.634 3.909 144.066 3.804 144.532 3.804C145.06 3.804 145.54 3.93233 145.974 4.189C146.408 4.44567 146.754 4.791 147.01 5.225C147.267 5.659 147.395 6.13967 147.395 6.667ZM152.374 4.98H150.701L150.694 11H149.714L149.721 4.98H148.454V4H149.721L149.714 1.802H150.694L150.701 4H152.374V4.98ZM155.758 7.633C155.758 7.171 155.873 6.74633 156.101 6.359C156.335 5.97167 156.654 5.666 157.06 5.442C157.35 5.29267 157.576 5.07333 157.739 4.784C157.903 4.49 157.984 4.168 157.984 3.818C157.984 3.47733 157.9 3.16933 157.732 2.894C157.569 2.61867 157.347 2.39933 157.067 2.236C156.792 2.07267 156.486 1.991 156.15 1.991C155.814 1.991 155.506 2.07267 155.226 2.236C154.951 2.39933 154.732 2.61867 154.568 2.894C154.405 3.16933 154.323 3.47733 154.323 3.818H153.343C153.343 3.3 153.469 2.82867 153.721 2.404C153.973 1.97933 154.312 1.641 154.736 1.389C155.166 1.137 155.637 1.011 156.15 1.011C156.668 1.011 157.14 1.137 157.564 1.389C157.994 1.641 158.334 1.97933 158.586 2.404C158.838 2.82867 158.964 3.3 158.964 3.818C158.964 4.34533 158.836 4.833 158.579 5.281C158.323 5.72433 157.97 6.06733 157.522 6.31C157.28 6.44067 157.088 6.62267 156.948 6.856C156.808 7.08933 156.738 7.34833 156.738 7.633H155.758ZM156.22 11.182C156.066 11.182 155.933 11.126 155.821 11.014C155.714 10.902 155.66 10.769 155.66 10.615C155.66 10.461 155.714 10.3303 155.821 10.223C155.933 10.1157 156.066 10.062 156.22 10.062C156.374 10.062 156.505 10.1157 156.612 10.223C156.724 10.3303 156.78 10.461 156.78 10.615C156.78 10.769 156.724 10.902 156.612 11.014C156.505 11.126 156.374 11.182 156.22 11.182Z" fill="#64748B"/>
<path d="M167.465 11.182C166.937 11.182 166.429 11.1003 165.939 10.937C165.449 10.769 165.019 10.531 164.651 10.223C164.287 9.915 164.028 9.54867 163.874 9.124L164.973 8.711C165.066 8.97233 165.239 9.201 165.491 9.397C165.747 9.58833 166.048 9.73767 166.394 9.845C166.739 9.95233 167.096 10.006 167.465 10.006C167.885 10.006 168.274 9.93833 168.634 9.803C168.998 9.663 169.292 9.46933 169.516 9.222C169.74 8.97467 169.852 8.68533 169.852 8.354C169.852 8.01333 169.735 7.73567 169.502 7.521C169.268 7.30167 168.97 7.129 168.606 7.003C168.242 6.87233 167.861 6.772 167.465 6.702C166.788 6.59 166.181 6.43133 165.645 6.226C165.113 6.016 164.69 5.72433 164.378 5.351C164.07 4.97767 163.916 4.48533 163.916 3.874C163.916 3.30467 164.079 2.80767 164.406 2.383C164.737 1.95833 165.173 1.62933 165.715 1.396C166.256 1.16267 166.839 1.046 167.465 1.046C167.983 1.046 168.484 1.12767 168.97 1.291C169.46 1.44967 169.891 1.683 170.265 1.991C170.638 2.299 170.906 2.67467 171.07 3.118L169.957 3.524C169.863 3.258 169.688 3.02933 169.432 2.838C169.18 2.642 168.881 2.49267 168.536 2.39C168.195 2.28267 167.838 2.229 167.465 2.229C167.049 2.22433 166.662 2.292 166.303 2.432C165.943 2.572 165.652 2.76567 165.428 3.013C165.204 3.26033 165.092 3.54733 165.092 3.874C165.092 4.266 165.194 4.567 165.4 4.777C165.61 4.98233 165.894 5.13633 166.254 5.239C166.613 5.34167 167.017 5.43267 167.465 5.512C168.099 5.61933 168.687 5.78967 169.229 6.023C169.77 6.25167 170.204 6.55733 170.531 6.94C170.862 7.32267 171.028 7.794 171.028 8.354C171.028 8.92333 170.862 9.42033 170.531 9.845C170.204 10.2697 169.77 10.5987 169.229 10.832C168.687 11.0653 168.099 11.182 167.465 11.182ZM172.518 4H173.694V11H172.518V4ZM173.12 2.859C172.933 2.859 172.777 2.79833 172.651 2.677C172.525 2.55567 172.462 2.404 172.462 2.222C172.462 2.04 172.525 1.88833 172.651 1.767C172.777 1.64567 172.931 1.585 173.113 1.585C173.295 1.585 173.449 1.64567 173.575 1.767C173.701 1.88833 173.764 2.04 173.764 2.222C173.764 2.404 173.701 2.55567 173.575 2.677C173.453 2.79833 173.302 2.859 173.12 2.859ZM180.746 4H181.922V11.224C181.922 11.686 181.822 12.1153 181.621 12.512C181.425 12.9133 181.159 13.261 180.823 13.555C180.487 13.8537 180.105 14.0847 179.675 14.248C179.246 14.416 178.798 14.5 178.331 14.5C177.846 14.5 177.377 14.3903 176.924 14.171C176.472 13.9563 176.075 13.667 175.734 13.303C175.398 12.9437 175.156 12.54 175.006 12.092L176.084 11.602C176.173 11.924 176.332 12.2133 176.56 12.47C176.794 12.7313 177.064 12.9367 177.372 13.086C177.685 13.24 178.005 13.317 178.331 13.317C178.639 13.317 178.936 13.2633 179.22 13.156C179.51 13.0487 179.769 12.8993 179.997 12.708C180.231 12.5213 180.413 12.2997 180.543 12.043C180.679 11.791 180.746 11.518 180.746 11.224V9.831C180.508 10.2323 180.193 10.559 179.801 10.811C179.414 11.0583 178.961 11.182 178.443 11.182C177.949 11.182 177.484 11.0863 177.05 10.895C176.616 10.7037 176.236 10.44 175.909 10.104C175.583 9.76333 175.326 9.37133 175.139 8.928C174.953 8.48467 174.859 8.00867 174.859 7.5C174.859 6.99133 174.953 6.51533 175.139 6.072C175.326 5.624 175.583 5.232 175.909 4.896C176.236 4.55533 176.616 4.28933 177.05 4.098C177.484 3.90667 177.949 3.811 178.443 3.811C178.961 3.811 179.414 3.93467 179.801 4.182C180.193 4.42933 180.508 4.756 180.746 5.162V4ZM178.45 10.041C178.903 10.041 179.295 9.92433 179.626 9.691C179.962 9.45767 180.221 9.14733 180.403 8.76C180.585 8.37267 180.676 7.95267 180.676 7.5C180.676 7.03333 180.583 6.60867 180.396 6.226C180.214 5.83867 179.955 5.53067 179.619 5.302C179.288 5.06867 178.898 4.952 178.45 4.952C178.012 4.952 177.61 5.06633 177.246 5.295C176.882 5.52367 176.593 5.83167 176.378 6.219C176.168 6.60167 176.063 7.02867 176.063 7.5C176.063 7.97133 176.171 8.40067 176.385 8.788C176.605 9.17067 176.894 9.47633 177.253 9.705C177.617 9.929 178.016 10.041 178.45 10.041ZM189.794 6.646V11H188.618V6.905C188.618 6.55033 188.531 6.22833 188.359 5.939C188.186 5.64967 187.955 5.421 187.666 5.253C187.376 5.08033 187.054 4.994 186.7 4.994C186.35 4.994 186.028 5.08033 185.734 5.253C185.444 5.421 185.213 5.64967 185.041 5.939C184.868 6.22833 184.782 6.55033 184.782 6.905V11H183.606V4H184.782V4.875C185.029 4.54833 185.342 4.28933 185.72 4.098C186.098 3.902 186.508 3.804 186.952 3.804C187.474 3.804 187.95 3.93233 188.38 4.189C188.814 4.441 189.157 4.78167 189.409 5.211C189.665 5.64033 189.794 6.11867 189.794 6.646ZM194.767 11V1.2H195.943V11H194.767ZM204.026 6.646V11H202.85V6.905C202.85 6.55033 202.764 6.22833 202.591 5.939C202.418 5.64967 202.187 5.421 201.898 5.253C201.609 5.08033 201.287 4.994 200.932 4.994C200.582 4.994 200.26 5.08033 199.966 5.253C199.677 5.421 199.446 5.64967 199.273 5.939C199.1 6.22833 199.014 6.55033 199.014 6.905V11H197.838V4H199.014V4.875C199.261 4.54833 199.574 4.28933 199.952 4.098C200.33 3.902 200.741 3.804 201.184 3.804C201.707 3.804 202.183 3.93233 202.612 4.189C203.046 4.441 203.389 4.78167 203.641 5.211C203.898 5.64033 204.026 6.11867 204.026 6.646Z" fill="#2D55F9"/>
</svg>
