<svg width="20" height="17" viewBox="0 0 20 17" fill="none" xmlns="http://www.w3.org/2000/svg">
<path d="M19.3333 8.32004C19.3333 8.76302 19.0042 9.12911 18.5771 9.18705L18.4583 9.19504L0.958334 9.19504C0.475086 9.19504 0.083334 8.80329 0.083334 8.32004C0.083334 7.87706 0.412514 7.51097 0.839603 7.45303L0.958334 7.44504L18.4583 7.44504C18.9416 7.44504 19.3333 7.83679 19.3333 8.32004Z" fill="#212121"/>
<path d="M8.63382 14.7284C8.97626 15.0694 8.97746 15.6234 8.63648 15.9659C8.32651 16.2772 7.84046 16.3065 7.49737 16.053L7.39905 15.9685L0.340715 8.94054C0.0284719 8.62964 6.77109e-05 8.14184 0.255514 7.79875L0.340664 7.70049L7.399 0.671323C7.74141 0.330322 8.29543 0.331469 8.63643 0.673885C8.94643 0.985172 8.97367 1.47134 8.71879 1.81336L8.63387 1.91132L2.1985 8.32084L8.63382 14.7284Z" fill="#212121"/>
</svg>
