<svg width="196" height="15" viewBox="0 0 196 15" fill="none" xmlns="http://www.w3.org/2000/svg">
<path d="M0.84 11V1.2H4.081C4.75767 1.2 5.39233 1.32833 5.985 1.585C6.57767 1.837 7.098 2.18933 7.546 2.642C7.994 3.09 8.344 3.61033 8.596 4.203C8.85267 4.791 8.981 5.42333 8.981 6.1C8.981 6.77667 8.85267 7.41133 8.596 8.004C8.344 8.592 7.994 9.11233 7.546 9.565C7.098 10.013 6.57767 10.3653 5.985 10.622C5.39233 10.874 4.75767 11 4.081 11H0.84ZM1.82 10.02H4.081C4.62233 10.02 5.12867 9.91967 5.6 9.719C6.076 9.51367 6.49367 9.23133 6.853 8.872C7.21233 8.51267 7.49233 8.09733 7.693 7.626C7.89833 7.15 8.001 6.64133 8.001 6.1C8.001 5.55867 7.89833 5.05233 7.693 4.581C7.49233 4.105 7.21 3.68733 6.846 3.328C6.48667 2.96867 6.07133 2.68867 5.6 2.488C5.12867 2.28267 4.62233 2.18 4.081 2.18H1.82V10.02ZM13.2305 11.182C12.5865 11.182 11.9985 11.0163 11.4665 10.685C10.9392 10.3537 10.5169 9.91033 10.1995 9.355C9.88688 8.795 9.73055 8.17667 9.73055 7.5C9.73055 6.98667 9.82155 6.50833 10.0035 6.065C10.1855 5.617 10.4352 5.225 10.7525 4.889C11.0745 4.54833 11.4479 4.28233 11.8725 4.091C12.2972 3.89967 12.7499 3.804 13.2305 3.804C13.8745 3.804 14.4602 3.96967 14.9875 4.301C15.5195 4.63233 15.9419 5.078 16.2545 5.638C16.5719 6.198 16.7305 6.81867 16.7305 7.5C16.7305 8.00867 16.6395 8.48467 16.4575 8.928C16.2755 9.37133 16.0235 9.76333 15.7015 10.104C15.3842 10.44 15.0132 10.7037 14.5885 10.895C14.1685 11.0863 13.7159 11.182 13.2305 11.182ZM13.2305 10.202C13.7065 10.202 14.1335 10.0783 14.5115 9.831C14.8942 9.579 15.1952 9.24767 15.4145 8.837C15.6385 8.42633 15.7505 7.98067 15.7505 7.5C15.7505 7.01 15.6385 6.55967 15.4145 6.149C15.1905 5.73367 14.8872 5.40233 14.5045 5.155C14.1265 4.90767 13.7019 4.784 13.2305 4.784C12.7545 4.784 12.3252 4.91 11.9425 5.162C11.5645 5.40933 11.2635 5.73833 11.0395 6.149C10.8202 6.55967 10.7105 7.01 10.7105 7.5C10.7105 8.004 10.8249 8.46133 11.0535 8.872C11.2822 9.278 11.5879 9.60233 11.9705 9.845C12.3532 10.083 12.7732 10.202 13.2305 10.202ZM24.0202 6.667V11H23.0402V6.863C23.0402 6.48033 22.9468 6.13267 22.7602 5.82C22.5735 5.50733 22.3238 5.25767 22.0112 5.071C21.6985 4.88433 21.3508 4.791 20.9682 4.791C20.5902 4.791 20.2425 4.88433 19.9252 5.071C19.6125 5.25767 19.3628 5.50733 19.1762 5.82C18.9895 6.13267 18.8962 6.48033 18.8962 6.863V11H17.9162V4H18.8962V4.966C19.1435 4.61133 19.4655 4.329 19.8622 4.119C20.2588 3.909 20.6905 3.804 21.1572 3.804C21.6845 3.804 22.1652 3.93233 22.5992 4.189C23.0332 4.44567 23.3785 4.791 23.6352 5.225C23.8918 5.659 24.0202 6.13967 24.0202 6.667ZM24.9988 4.854L25.4328 1.2H26.4128L25.6498 4.854H24.9988ZM31.2549 4.98H29.5819L29.5749 11H28.5949L28.6019 4.98H27.3349V4H28.6019L28.5949 1.802H29.5749L29.5819 4H31.2549V4.98ZM41.9713 6.667V11H40.9913V6.863C40.9913 6.48033 40.898 6.13267 40.7113 5.82C40.5247 5.50733 40.275 5.25767 39.9623 5.071C39.6497 4.88433 39.302 4.791 38.9193 4.791C38.5413 4.791 38.1937 4.88433 37.8763 5.071C37.5637 5.25767 37.314 5.50733 37.1273 5.82C36.9407 6.13267 36.8473 6.48033 36.8473 6.863V11H35.8673V0.499999H36.8473V4.966C37.0947 4.61133 37.4167 4.329 37.8133 4.119C38.21 3.909 38.6417 3.804 39.1083 3.804C39.6357 3.804 40.1163 3.93233 40.5503 4.189C40.9843 4.44567 41.3297 4.791 41.5863 5.225C41.843 5.659 41.9713 6.13967 41.9713 6.667ZM48.9905 4H49.9705V11H48.9905L48.9555 9.698C48.7268 10.1413 48.4072 10.5007 47.9965 10.776C47.5858 11.0467 47.0958 11.182 46.5265 11.182C46.0132 11.182 45.5325 11.0863 45.0845 10.895C44.6365 10.699 44.2422 10.4307 43.9015 10.09C43.5608 9.74933 43.2948 9.355 43.1035 8.907C42.9122 8.459 42.8165 7.97833 42.8165 7.465C42.8165 6.961 42.9098 6.48733 43.0965 6.044C43.2878 5.60067 43.5492 5.211 43.8805 4.875C44.2165 4.539 44.6038 4.27767 45.0425 4.091C45.4858 3.89967 45.9595 3.804 46.4635 3.804C47.0468 3.804 47.5555 3.944 47.9895 4.224C48.4235 4.49933 48.7688 4.861 49.0255 5.309L48.9905 4ZM46.5055 10.23C47.0048 10.23 47.4342 10.1087 47.7935 9.866C48.1528 9.61867 48.4282 9.28733 48.6195 8.872C48.8155 8.45667 48.9135 7.99933 48.9135 7.5C48.9135 6.98667 48.8155 6.52467 48.6195 6.114C48.4235 5.69867 48.1458 5.36967 47.7865 5.127C47.4272 4.88433 47.0002 4.763 46.5055 4.763C46.0108 4.763 45.5582 4.88667 45.1475 5.134C44.7415 5.37667 44.4172 5.70567 44.1745 6.121C43.9365 6.53633 43.8175 6.996 43.8175 7.5C43.8175 8.00867 43.9412 8.47067 44.1885 8.886C44.4358 9.29667 44.7625 9.62333 45.1685 9.866C45.5792 10.1087 46.0248 10.23 46.5055 10.23ZM54.6155 11H53.3695L50.8145 3.979H51.8575L53.9925 9.852L56.1275 3.979H57.1705L54.6155 11ZM61.1368 11.182C60.4928 11.182 59.9048 11.0163 59.3728 10.685C58.8455 10.3537 58.4231 9.91033 58.1058 9.355C57.7931 8.795 57.6368 8.17667 57.6368 7.5C57.6368 6.98667 57.7278 6.50833 57.9098 6.065C58.0918 5.617 58.3415 5.225 58.6588 4.889C58.9808 4.54833 59.3541 4.28233 59.7788 4.091C60.2035 3.89967 60.6561 3.804 61.1368 3.804C61.6548 3.804 62.1308 3.90667 62.5648 4.112C63.0035 4.31733 63.3791 4.60433 63.6918 4.973C64.0091 5.34167 64.2471 5.77333 64.4058 6.268C64.5691 6.76267 64.6368 7.297 64.6088 7.871H58.6728C58.7288 8.31433 58.8688 8.711 59.0928 9.061C59.3215 9.411 59.6108 9.68867 59.9608 9.894C60.3155 10.0947 60.7075 10.1973 61.1368 10.202C61.6035 10.202 62.0235 10.0807 62.3968 9.838C62.7748 9.59533 63.0781 9.26167 63.3068 8.837L64.3008 9.068C64.0208 9.68867 63.5985 10.1973 63.0338 10.594C62.4691 10.986 61.8368 11.182 61.1368 11.182ZM58.6448 7.08H63.6218C63.5891 6.646 63.4561 6.24933 63.2228 5.89C62.9941 5.526 62.6978 5.23667 62.3338 5.022C61.9698 4.80267 61.5708 4.693 61.1368 4.693C60.7028 4.693 60.3061 4.80033 59.9468 5.015C59.5875 5.225 59.2935 5.512 59.0648 5.876C58.8361 6.23533 58.6961 6.63667 58.6448 7.08ZM74.9944 4H75.9744V11H74.9944L74.9594 9.698C74.7307 10.1413 74.4111 10.5007 74.0004 10.776C73.5897 11.0467 73.0997 11.182 72.5304 11.182C72.0171 11.182 71.5364 11.0863 71.0884 10.895C70.6404 10.699 70.2461 10.4307 69.9054 10.09C69.5647 9.74933 69.2987 9.355 69.1074 8.907C68.9161 8.459 68.8204 7.97833 68.8204 7.465C68.8204 6.961 68.9137 6.48733 69.1004 6.044C69.2917 5.60067 69.5531 5.211 69.8844 4.875C70.2204 4.539 70.6077 4.27767 71.0464 4.091C71.4897 3.89967 71.9634 3.804 72.4674 3.804C73.0507 3.804 73.5594 3.944 73.9934 4.224C74.4274 4.49933 74.7727 4.861 75.0294 5.309L74.9944 4ZM72.5094 10.23C73.0087 10.23 73.4381 10.1087 73.7974 9.866C74.1567 9.61867 74.4321 9.28733 74.6234 8.872C74.8194 8.45667 74.9174 7.99933 74.9174 7.5C74.9174 6.98667 74.8194 6.52467 74.6234 6.114C74.4274 5.69867 74.1497 5.36967 73.7904 5.127C73.4311 4.88433 73.0041 4.763 72.5094 4.763C72.0147 4.763 71.5621 4.88667 71.1514 5.134C70.7454 5.37667 70.4211 5.70567 70.1784 6.121C69.9404 6.53633 69.8214 6.996 69.8214 7.5C69.8214 8.00867 69.9451 8.47067 70.1924 8.886C70.4397 9.29667 70.7664 9.62333 71.1724 9.866C71.5831 10.1087 72.0287 10.23 72.5094 10.23ZM83.4792 6.667V11H82.4992V6.863C82.4992 6.48033 82.4058 6.13267 82.2192 5.82C82.0325 5.50733 81.7828 5.25767 81.4702 5.071C81.1575 4.88433 80.8098 4.791 80.4272 4.791C80.0492 4.791 79.7015 4.88433 79.3842 5.071C79.0715 5.25767 78.8218 5.50733 78.6352 5.82C78.4485 6.13267 78.3552 6.48033 78.3552 6.863V11H77.3752V4H78.3552V4.966C78.6025 4.61133 78.9245 4.329 79.3212 4.119C79.7178 3.909 80.1495 3.804 80.6162 3.804C81.1435 3.804 81.6242 3.93233 82.0582 4.189C82.4922 4.44567 82.8375 4.791 83.0942 5.225C83.3508 5.659 83.4792 6.13967 83.4792 6.667ZM93.9983 4H94.9783V11H93.9983L93.9633 9.698C93.7346 10.1413 93.415 10.5007 93.0043 10.776C92.5936 11.0467 92.1036 11.182 91.5343 11.182C91.021 11.182 90.5403 11.0863 90.0923 10.895C89.6443 10.699 89.25 10.4307 88.9093 10.09C88.5686 9.74933 88.3026 9.355 88.1113 8.907C87.92 8.459 87.8243 7.97833 87.8243 7.465C87.8243 6.961 87.9176 6.48733 88.1043 6.044C88.2956 5.60067 88.557 5.211 88.8883 4.875C89.2243 4.539 89.6116 4.27767 90.0503 4.091C90.4936 3.89967 90.9673 3.804 91.4713 3.804C92.0546 3.804 92.5633 3.944 92.9973 4.224C93.4313 4.49933 93.7766 4.861 94.0333 5.309L93.9983 4ZM91.5133 10.23C92.0126 10.23 92.442 10.1087 92.8013 9.866C93.1606 9.61867 93.436 9.28733 93.6273 8.872C93.8233 8.45667 93.9213 7.99933 93.9213 7.5C93.9213 6.98667 93.8233 6.52467 93.6273 6.114C93.4313 5.69867 93.1536 5.36967 92.7943 5.127C92.435 4.88433 92.008 4.763 91.5133 4.763C91.0186 4.763 90.566 4.88667 90.1553 5.134C89.7493 5.37667 89.425 5.70567 89.1823 6.121C88.9443 6.53633 88.8253 6.996 88.8253 7.5C88.8253 8.00867 88.949 8.47067 89.1963 8.886C89.4436 9.29667 89.7703 9.62333 90.1763 9.866C90.587 10.1087 91.0326 10.23 91.5133 10.23ZM101.24 9.243L102.115 9.719C101.798 10.1623 101.394 10.517 100.904 10.783C100.419 11.049 99.8917 11.182 99.3223 11.182C98.6783 11.182 98.0903 11.0163 97.5583 10.685C97.031 10.3537 96.6087 9.91033 96.2913 9.355C95.9787 8.795 95.8223 8.17667 95.8223 7.5C95.8223 6.98667 95.9133 6.50833 96.0953 6.065C96.2773 5.617 96.527 5.225 96.8443 4.889C97.1663 4.54833 97.5397 4.28233 97.9643 4.091C98.389 3.89967 98.8417 3.804 99.3223 3.804C99.8917 3.804 100.419 3.937 100.904 4.203C101.394 4.469 101.798 4.826 102.115 5.274L101.24 5.743C100.998 5.435 100.706 5.19933 100.365 5.036C100.025 4.868 99.677 4.784 99.3223 4.784C98.851 4.784 98.424 4.91 98.0413 5.162C97.6587 5.40933 97.3553 5.73833 97.1313 6.149C96.912 6.55967 96.8023 7.01 96.8023 7.5C96.8023 7.99 96.9143 8.44033 97.1383 8.851C97.367 9.26167 97.6727 9.59067 98.0553 9.838C98.438 10.0807 98.8603 10.202 99.3223 10.202C99.705 10.202 100.064 10.1133 100.4 9.936C100.736 9.75867 101.016 9.52767 101.24 9.243ZM108.281 9.243L109.156 9.719C108.839 10.1623 108.435 10.517 107.945 10.783C107.46 11.049 106.933 11.182 106.363 11.182C105.719 11.182 105.131 11.0163 104.599 10.685C104.072 10.3537 103.65 9.91033 103.332 9.355C103.02 8.795 102.863 8.17667 102.863 7.5C102.863 6.98667 102.954 6.50833 103.136 6.065C103.318 5.617 103.568 5.225 103.885 4.889C104.207 4.54833 104.581 4.28233 105.005 4.091C105.43 3.89967 105.883 3.804 106.363 3.804C106.933 3.804 107.46 3.937 107.945 4.203C108.435 4.469 108.839 4.826 109.156 5.274L108.281 5.743C108.039 5.435 107.747 5.19933 107.406 5.036C107.066 4.868 106.718 4.784 106.363 4.784C105.892 4.784 105.465 4.91 105.082 5.162C104.7 5.40933 104.396 5.73833 104.172 6.149C103.953 6.55967 103.843 7.01 103.843 7.5C103.843 7.99 103.955 8.44033 104.179 8.851C104.408 9.26167 104.714 9.59067 105.096 9.838C105.479 10.0807 105.901 10.202 106.363 10.202C106.746 10.202 107.105 10.1133 107.441 9.936C107.777 9.75867 108.057 9.52767 108.281 9.243ZM113.404 11.182C112.76 11.182 112.172 11.0163 111.64 10.685C111.113 10.3537 110.691 9.91033 110.373 9.355C110.061 8.795 109.904 8.17667 109.904 7.5C109.904 6.98667 109.995 6.50833 110.177 6.065C110.359 5.617 110.609 5.225 110.926 4.889C111.248 4.54833 111.622 4.28233 112.046 4.091C112.471 3.89967 112.924 3.804 113.404 3.804C114.048 3.804 114.634 3.96967 115.161 4.301C115.693 4.63233 116.116 5.078 116.428 5.638C116.746 6.198 116.904 6.81867 116.904 7.5C116.904 8.00867 116.813 8.48467 116.631 8.928C116.449 9.37133 116.197 9.76333 115.875 10.104C115.558 10.44 115.187 10.7037 114.762 10.895C114.342 11.0863 113.89 11.182 113.404 11.182ZM113.404 10.202C113.88 10.202 114.307 10.0783 114.685 9.831C115.068 9.579 115.369 9.24767 115.588 8.837C115.812 8.42633 115.924 7.98067 115.924 7.5C115.924 7.01 115.812 6.55967 115.588 6.149C115.364 5.73367 115.061 5.40233 114.678 5.155C114.3 4.90767 113.876 4.784 113.404 4.784C112.928 4.784 112.499 4.91 112.116 5.162C111.738 5.40933 111.437 5.73833 111.213 6.149C110.994 6.55967 110.884 7.01 110.884 7.5C110.884 8.004 110.999 8.46133 111.227 8.872C111.456 9.278 111.762 9.60233 112.144 9.845C112.527 10.083 112.947 10.202 113.404 10.202ZM117.742 8.319V4H118.722V8.123C118.722 8.50567 118.815 8.85333 119.002 9.166C119.188 9.47867 119.438 9.72833 119.751 9.915C120.068 10.1017 120.416 10.195 120.794 10.195C121.176 10.195 121.522 10.1017 121.83 9.915C122.142 9.72833 122.392 9.47867 122.579 9.166C122.765 8.85333 122.859 8.50567 122.859 8.123V4H123.839L123.846 11H122.866L122.859 10.02C122.611 10.3747 122.289 10.657 121.893 10.867C121.501 11.077 121.071 11.182 120.605 11.182C120.077 11.182 119.597 11.0537 119.163 10.797C118.729 10.5403 118.383 10.195 118.127 9.761C117.87 9.327 117.742 8.84633 117.742 8.319ZM131.344 6.667V11H130.364V6.863C130.364 6.48033 130.271 6.13267 130.084 5.82C129.898 5.50733 129.648 5.25767 129.335 5.071C129.023 4.88433 128.675 4.791 128.292 4.791C127.914 4.791 127.567 4.88433 127.249 5.071C126.937 5.25767 126.687 5.50733 126.5 5.82C126.314 6.13267 126.22 6.48033 126.22 6.863V11H125.24V4H126.22V4.966C126.468 4.61133 126.79 4.329 127.186 4.119C127.583 3.909 128.015 3.804 128.481 3.804C129.009 3.804 129.489 3.93233 129.923 4.189C130.357 4.44567 130.703 4.791 130.959 5.225C131.216 5.659 131.344 6.13967 131.344 6.667ZM136.323 4.98H134.65L134.643 11H133.663L133.67 4.98H132.403V4H133.67L133.663 1.802H134.643L134.65 4H136.323V4.98ZM139.707 7.633C139.707 7.171 139.822 6.74633 140.05 6.359C140.284 5.97167 140.603 5.666 141.009 5.442C141.299 5.29267 141.525 5.07333 141.688 4.784C141.852 4.49 141.933 4.168 141.933 3.818C141.933 3.47733 141.849 3.16933 141.681 2.894C141.518 2.61867 141.296 2.39933 141.016 2.236C140.741 2.07267 140.435 1.991 140.099 1.991C139.763 1.991 139.455 2.07267 139.175 2.236C138.9 2.39933 138.681 2.61867 138.517 2.894C138.354 3.16933 138.272 3.47733 138.272 3.818H137.292C137.292 3.3 137.418 2.82867 137.67 2.404C137.922 1.97933 138.261 1.641 138.685 1.389C139.115 1.137 139.586 1.011 140.099 1.011C140.617 1.011 141.089 1.137 141.513 1.389C141.943 1.641 142.283 1.97933 142.535 2.404C142.787 2.82867 142.913 3.3 142.913 3.818C142.913 4.34533 142.785 4.833 142.528 5.281C142.272 5.72433 141.919 6.06733 141.471 6.31C141.229 6.44067 141.037 6.62267 140.897 6.856C140.757 7.08933 140.687 7.34833 140.687 7.633H139.707ZM140.169 11.182C140.015 11.182 139.882 11.126 139.77 11.014C139.663 10.902 139.609 10.769 139.609 10.615C139.609 10.461 139.663 10.3303 139.77 10.223C139.882 10.1157 140.015 10.062 140.169 10.062C140.323 10.062 140.454 10.1157 140.561 10.223C140.673 10.3303 140.729 10.461 140.729 10.615C140.729 10.769 140.673 10.902 140.561 11.014C140.454 11.126 140.323 11.182 140.169 11.182Z" fill="#64748B"/>
<path d="M151.414 11.182C150.887 11.182 150.378 11.1003 149.888 10.937C149.398 10.769 148.969 10.531 148.6 10.223C148.236 9.915 147.977 9.54867 147.823 9.124L148.922 8.711C149.015 8.97233 149.188 9.201 149.44 9.397C149.697 9.58833 149.998 9.73767 150.343 9.845C150.688 9.95233 151.045 10.006 151.414 10.006C151.834 10.006 152.224 9.93833 152.583 9.803C152.947 9.663 153.241 9.46933 153.465 9.222C153.689 8.97467 153.801 8.68533 153.801 8.354C153.801 8.01333 153.684 7.73567 153.451 7.521C153.218 7.30167 152.919 7.129 152.555 7.003C152.191 6.87233 151.811 6.772 151.414 6.702C150.737 6.59 150.131 6.43133 149.594 6.226C149.062 6.016 148.64 5.72433 148.327 5.351C148.019 4.97767 147.865 4.48533 147.865 3.874C147.865 3.30467 148.028 2.80767 148.355 2.383C148.686 1.95833 149.123 1.62933 149.664 1.396C150.205 1.16267 150.789 1.046 151.414 1.046C151.932 1.046 152.434 1.12767 152.919 1.291C153.409 1.44967 153.841 1.683 154.214 1.991C154.587 2.299 154.856 2.67467 155.019 3.118L153.906 3.524C153.813 3.258 153.638 3.02933 153.381 2.838C153.129 2.642 152.83 2.49267 152.485 2.39C152.144 2.28267 151.787 2.229 151.414 2.229C150.999 2.22433 150.611 2.292 150.252 2.432C149.893 2.572 149.601 2.76567 149.377 3.013C149.153 3.26033 149.041 3.54733 149.041 3.874C149.041 4.266 149.144 4.567 149.349 4.777C149.559 4.98233 149.844 5.13633 150.203 5.239C150.562 5.34167 150.966 5.43267 151.414 5.512C152.049 5.61933 152.637 5.78967 153.178 6.023C153.719 6.25167 154.153 6.55733 154.48 6.94C154.811 7.32267 154.977 7.794 154.977 8.354C154.977 8.92333 154.811 9.42033 154.48 9.845C154.153 10.2697 153.719 10.5987 153.178 10.832C152.637 11.0653 152.049 11.182 151.414 11.182ZM156.467 4H157.643V11H156.467V4ZM157.069 2.859C156.882 2.859 156.726 2.79833 156.6 2.677C156.474 2.55567 156.411 2.404 156.411 2.222C156.411 2.04 156.474 1.88833 156.6 1.767C156.726 1.64567 156.88 1.585 157.062 1.585C157.244 1.585 157.398 1.64567 157.524 1.767C157.65 1.88833 157.713 2.04 157.713 2.222C157.713 2.404 157.65 2.55567 157.524 2.677C157.403 2.79833 157.251 2.859 157.069 2.859ZM164.696 4H165.872V11.224C165.872 11.686 165.771 12.1153 165.571 12.512C165.375 12.9133 165.109 13.261 164.773 13.555C164.437 13.8537 164.054 14.0847 163.625 14.248C163.195 14.416 162.747 14.5 162.281 14.5C161.795 14.5 161.326 14.3903 160.874 14.171C160.421 13.9563 160.024 13.667 159.684 13.303C159.348 12.9437 159.105 12.54 158.956 12.092L160.034 11.602C160.122 11.924 160.281 12.2133 160.51 12.47C160.743 12.7313 161.014 12.9367 161.322 13.086C161.634 13.24 161.954 13.317 162.281 13.317C162.589 13.317 162.885 13.2633 163.17 13.156C163.459 13.0487 163.718 12.8993 163.947 12.708C164.18 12.5213 164.362 12.2997 164.493 12.043C164.628 11.791 164.696 11.518 164.696 11.224V9.831C164.458 10.2323 164.143 10.559 163.751 10.811C163.363 11.0583 162.911 11.182 162.393 11.182C161.898 11.182 161.434 11.0863 161 10.895C160.566 10.7037 160.185 10.44 159.859 10.104C159.532 9.76333 159.275 9.37133 159.089 8.928C158.902 8.48467 158.809 8.00867 158.809 7.5C158.809 6.99133 158.902 6.51533 159.089 6.072C159.275 5.624 159.532 5.232 159.859 4.896C160.185 4.55533 160.566 4.28933 161 4.098C161.434 3.90667 161.898 3.811 162.393 3.811C162.911 3.811 163.363 3.93467 163.751 4.182C164.143 4.42933 164.458 4.756 164.696 5.162V4ZM162.4 10.041C162.852 10.041 163.244 9.92433 163.576 9.691C163.912 9.45767 164.171 9.14733 164.353 8.76C164.535 8.37267 164.626 7.95267 164.626 7.5C164.626 7.03333 164.532 6.60867 164.346 6.226C164.164 5.83867 163.905 5.53067 163.569 5.302C163.237 5.06867 162.848 4.952 162.4 4.952C161.961 4.952 161.56 5.06633 161.196 5.295C160.832 5.52367 160.542 5.83167 160.328 6.219C160.118 6.60167 160.013 7.02867 160.013 7.5C160.013 7.97133 160.12 8.40067 160.335 8.788C160.554 9.17067 160.843 9.47633 161.203 9.705C161.567 9.929 161.966 10.041 162.4 10.041ZM173.743 6.646V11H172.567V6.905C172.567 6.55033 172.481 6.22833 172.308 5.939C172.135 5.64967 171.904 5.421 171.615 5.253C171.326 5.08033 171.004 4.994 170.649 4.994C170.299 4.994 169.977 5.08033 169.683 5.253C169.394 5.421 169.163 5.64967 168.99 5.939C168.817 6.22833 168.731 6.55033 168.731 6.905V11H167.555V4H168.731V4.875C168.978 4.54833 169.291 4.28933 169.669 4.098C170.047 3.902 170.458 3.804 170.901 3.804C171.424 3.804 171.9 3.93233 172.329 4.189C172.763 4.441 173.106 4.78167 173.358 5.211C173.615 5.64033 173.743 6.11867 173.743 6.646ZM182.342 11.182C181.558 11.182 180.877 10.9907 180.298 10.608C179.724 10.2253 179.281 9.712 178.968 9.068C178.66 8.41933 178.506 7.70067 178.506 6.912V1.2H179.682V6.912C179.682 7.472 179.785 7.98767 179.99 8.459C180.2 8.93033 180.501 9.306 180.893 9.586C181.29 9.866 181.773 10.006 182.342 10.006C182.921 10.006 183.406 9.866 183.798 9.586C184.19 9.30133 184.486 8.92567 184.687 8.459C184.892 7.98767 184.995 7.472 184.995 6.912V1.2H186.171V6.912C186.171 7.50467 186.082 8.06 185.905 8.578C185.728 9.09133 185.471 9.544 185.135 9.936C184.804 10.328 184.402 10.6337 183.931 10.853C183.46 11.0723 182.93 11.182 182.342 11.182ZM189.034 14.5H187.858V4H189.034V5.197C189.272 4.78633 189.589 4.455 189.986 4.203C190.382 3.94633 190.854 3.818 191.4 3.818C191.908 3.818 192.384 3.91367 192.828 4.105C193.276 4.29633 193.668 4.56233 194.004 4.903C194.34 5.239 194.603 5.62867 194.795 6.072C194.986 6.51533 195.082 6.99133 195.082 7.5C195.082 8.00867 194.986 8.487 194.795 8.935C194.603 9.383 194.34 9.77733 194.004 10.118C193.668 10.454 193.276 10.7177 192.828 10.909C192.384 11.1003 191.908 11.196 191.4 11.196C190.854 11.196 190.382 11.07 189.986 10.818C189.589 10.5613 189.272 10.2277 189.034 9.817V14.5ZM191.386 4.959C190.933 4.959 190.536 5.07333 190.196 5.302C189.855 5.53067 189.591 5.83633 189.405 6.219C189.223 6.60167 189.132 7.02867 189.132 7.5C189.132 7.96667 189.223 8.39367 189.405 8.781C189.591 9.16833 189.853 9.47633 190.189 9.705C190.529 9.93367 190.928 10.048 191.386 10.048C191.838 10.048 192.254 9.936 192.632 9.712C193.01 9.48333 193.313 9.17767 193.542 8.795C193.77 8.40767 193.885 7.976 193.885 7.5C193.885 7.03333 193.773 6.60867 193.549 6.226C193.325 5.83867 193.024 5.53067 192.646 5.302C192.268 5.07333 191.848 4.959 191.386 4.959Z" fill="#2D55F9"/>
</svg>
