<svg width="327" height="56" viewBox="0 0 327 56" fill="none" xmlns="http://www.w3.org/2000/svg">
<path d="M103.41 34V22.8H104.754V32.656H109.77V34H103.41ZM114.574 34.208C113.838 34.208 113.166 34.0187 112.558 33.64C111.955 33.2613 111.472 32.7547 111.11 32.12C110.752 31.48 110.574 30.7733 110.574 30C110.574 29.4133 110.678 28.8667 110.886 28.36C111.094 27.848 111.379 27.4 111.742 27.016C112.11 26.6267 112.536 26.3227 113.022 26.104C113.507 25.8853 114.024 25.776 114.574 25.776C115.31 25.776 115.979 25.9653 116.582 26.344C117.19 26.7227 117.672 27.232 118.03 27.872C118.392 28.512 118.574 29.2213 118.574 30C118.574 30.5813 118.47 31.1253 118.262 31.632C118.054 32.1387 117.766 32.5867 117.398 32.976C117.035 33.36 116.611 33.6613 116.126 33.88C115.646 34.0987 115.128 34.208 114.574 34.208ZM114.574 32.864C115.075 32.864 115.526 32.7333 115.926 32.472C116.331 32.2053 116.648 31.856 116.878 31.424C117.112 30.9867 117.23 30.512 117.23 30C117.23 29.4773 117.11 28.9973 116.87 28.56C116.635 28.1227 116.318 27.7733 115.918 27.512C115.518 27.2507 115.07 27.12 114.574 27.12C114.072 27.12 113.622 27.2533 113.222 27.52C112.822 27.7813 112.504 28.1307 112.27 28.568C112.035 29.0053 111.918 29.4827 111.918 30C111.918 30.5333 112.038 31.0187 112.278 31.456C112.518 31.888 112.84 32.232 113.246 32.488C113.651 32.7387 114.094 32.864 114.574 32.864ZM126.399 26H127.743V34.256C127.743 34.784 127.628 35.2747 127.399 35.728C127.175 36.1867 126.871 36.584 126.487 36.92C126.103 37.2613 125.665 37.5253 125.175 37.712C124.684 37.904 124.172 38 123.639 38C123.084 38 122.548 37.8747 122.031 37.624C121.513 37.3787 121.06 37.048 120.671 36.632C120.287 36.2213 120.009 35.76 119.839 35.248L121.071 34.688C121.172 35.056 121.353 35.3867 121.615 35.68C121.881 35.9787 122.191 36.2133 122.543 36.384C122.9 36.56 123.265 36.648 123.639 36.648C123.991 36.648 124.329 36.5867 124.655 36.464C124.985 36.3413 125.281 36.1707 125.543 35.952C125.809 35.7387 126.017 35.4853 126.167 35.192C126.321 34.904 126.399 34.592 126.399 34.256V32.664C126.127 33.1227 125.767 33.496 125.319 33.784C124.876 34.0667 124.359 34.208 123.767 34.208C123.201 34.208 122.671 34.0987 122.175 33.88C121.679 33.6613 121.244 33.36 120.871 32.976C120.497 32.5867 120.204 32.1387 119.991 31.632C119.777 31.1253 119.671 30.5813 119.671 30C119.671 29.4187 119.777 28.8747 119.991 28.368C120.204 27.856 120.497 27.408 120.871 27.024C121.244 26.6347 121.679 26.3307 122.175 26.112C122.671 25.8933 123.201 25.784 123.767 25.784C124.359 25.784 124.876 25.9253 125.319 26.208C125.767 26.4907 126.127 26.864 126.399 27.328V26ZM123.775 32.904C124.292 32.904 124.74 32.7707 125.119 32.504C125.503 32.2373 125.799 31.8827 126.007 31.44C126.215 30.9973 126.319 30.5173 126.319 30C126.319 29.4667 126.212 28.9813 125.999 28.544C125.791 28.1013 125.495 27.7493 125.111 27.488C124.732 27.2213 124.287 27.088 123.775 27.088C123.273 27.088 122.815 27.2187 122.399 27.48C121.983 27.7413 121.652 28.0933 121.407 28.536C121.167 28.9733 121.047 29.4613 121.047 30C121.047 30.5387 121.169 31.0293 121.415 31.472C121.665 31.9093 121.996 32.2587 122.407 32.52C122.823 32.776 123.279 32.904 123.775 32.904ZM134.11 26H135.454V34H134.11V26ZM134.798 24.696C134.585 24.696 134.406 24.6267 134.262 24.488C134.118 24.3493 134.046 24.176 134.046 23.968C134.046 23.76 134.118 23.5867 134.262 23.448C134.406 23.3093 134.582 23.24 134.79 23.24C134.998 23.24 135.174 23.3093 135.318 23.448C135.462 23.5867 135.534 23.76 135.534 23.968C135.534 24.176 135.462 24.3493 135.318 24.488C135.179 24.6267 135.006 24.696 134.798 24.696ZM144.701 29.024V34H143.357V29.32C143.357 28.9147 143.258 28.5467 143.061 28.216C142.863 27.8853 142.599 27.624 142.269 27.432C141.938 27.2347 141.57 27.136 141.165 27.136C140.765 27.136 140.397 27.2347 140.061 27.432C139.73 27.624 139.466 27.8853 139.269 28.216C139.071 28.5467 138.973 28.9147 138.973 29.32V34H137.629V26H138.973V27C139.255 26.6267 139.613 26.3307 140.045 26.112C140.477 25.888 140.946 25.776 141.453 25.776C142.05 25.776 142.594 25.9227 143.085 26.216C143.581 26.504 143.973 26.8933 144.261 27.384C144.554 27.8747 144.701 28.4213 144.701 29.024ZM154.304 34H152.944L150.264 26H151.576L153.64 32.104L155.68 26H157.064L159.112 32.104L161.152 26H162.48L159.8 34H158.432L156.36 27.84L154.304 34ZM164.076 26H165.42V34H164.076V26ZM164.764 24.696C164.55 24.696 164.372 24.6267 164.228 24.488C164.084 24.3493 164.012 24.176 164.012 23.968C164.012 23.76 164.084 23.5867 164.228 23.448C164.372 23.3093 164.548 23.24 164.756 23.24C164.964 23.24 165.14 23.3093 165.284 23.448C165.428 23.5867 165.5 23.76 165.5 23.968C165.5 24.176 165.428 24.3493 165.284 24.488C165.145 24.6267 164.972 24.696 164.764 24.696ZM171.785 27.344H169.969L169.961 34H168.617L168.625 27.344H167.249V26H168.625L168.617 23.488H169.961L169.969 26H171.785V27.344ZM180.591 29.024V34H179.247V29.32C179.247 28.9147 179.149 28.5467 178.951 28.216C178.754 27.8853 178.49 27.624 178.159 27.432C177.829 27.2347 177.461 27.136 177.055 27.136C176.655 27.136 176.287 27.2347 175.951 27.432C175.621 27.624 175.357 27.8853 175.159 28.216C174.962 28.5467 174.863 28.9147 174.863 29.32V34H173.519V22H174.863V27C175.146 26.6267 175.503 26.3307 175.935 26.112C176.367 25.888 176.837 25.776 177.343 25.776C177.941 25.776 178.485 25.9227 178.975 26.216C179.471 26.504 179.863 26.8933 180.151 27.384C180.445 27.8747 180.591 28.4213 180.591 29.024ZM191.827 34.208C191.054 34.208 190.331 34.0587 189.659 33.76C188.992 33.456 188.408 33.0373 187.907 32.504C187.411 31.9653 187.022 31.3467 186.739 30.648C186.456 29.944 186.315 29.192 186.315 28.392C186.315 27.5653 186.462 26.8 186.755 26.096C187.054 25.392 187.459 24.7787 187.971 24.256C188.488 23.7333 189.078 23.328 189.739 23.04C190.406 22.7467 191.11 22.6 191.851 22.6C192.694 22.6 193.496 22.7973 194.259 23.192C195.022 23.5867 195.678 24.1573 196.227 24.904L195.027 25.552C194.616 25.0293 194.128 24.6293 193.563 24.352C193.003 24.0747 192.427 23.936 191.835 23.936C191.27 23.936 190.734 24.0507 190.227 24.28C189.726 24.5093 189.28 24.8293 188.891 25.24C188.507 25.6507 188.206 26.1253 187.987 26.664C187.768 27.2027 187.659 27.7867 187.659 28.416C187.659 29.0293 187.768 29.6053 187.987 30.144C188.206 30.6827 188.504 31.1573 188.883 31.568C189.267 31.9733 189.712 32.2907 190.219 32.52C190.726 32.7493 191.267 32.864 191.843 32.864C192.302 32.864 192.736 32.7867 193.147 32.632C193.563 32.4773 193.944 32.2587 194.291 31.976C194.643 31.6933 194.942 31.36 195.187 30.976C195.438 30.592 195.627 30.1707 195.755 29.712H192.995V28.512H197.323C197.318 29.296 197.168 30.032 196.875 30.72C196.587 31.408 196.19 32.0133 195.683 32.536C195.182 33.0587 194.6 33.4693 193.939 33.768C193.283 34.0613 192.579 34.208 191.827 34.208ZM202.596 34.208C201.86 34.208 201.188 34.0187 200.58 33.64C199.977 33.2613 199.494 32.7547 199.132 32.12C198.774 31.48 198.596 30.7733 198.596 30C198.596 29.4133 198.7 28.8667 198.908 28.36C199.116 27.848 199.401 27.4 199.764 27.016C200.132 26.6267 200.558 26.3227 201.044 26.104C201.529 25.8853 202.046 25.776 202.596 25.776C203.332 25.776 204.001 25.9653 204.604 26.344C205.212 26.7227 205.694 27.232 206.052 27.872C206.414 28.512 206.596 29.2213 206.596 30C206.596 30.5813 206.492 31.1253 206.284 31.632C206.076 32.1387 205.788 32.5867 205.42 32.976C205.057 33.36 204.633 33.6613 204.148 33.88C203.668 34.0987 203.15 34.208 202.596 34.208ZM202.596 32.864C203.097 32.864 203.548 32.7333 203.948 32.472C204.353 32.2053 204.67 31.856 204.9 31.424C205.134 30.9867 205.252 30.512 205.252 30C205.252 29.4773 205.132 28.9973 204.892 28.56C204.657 28.1227 204.34 27.7733 203.94 27.512C203.54 27.2507 203.092 27.12 202.596 27.12C202.094 27.12 201.644 27.2533 201.244 27.52C200.844 27.7813 200.526 28.1307 200.292 28.568C200.057 29.0053 199.94 29.4827 199.94 30C199.94 30.5333 200.06 31.0187 200.3 31.456C200.54 31.888 200.862 32.232 201.268 32.488C201.673 32.7387 202.116 32.864 202.596 32.864ZM211.692 34.208C210.956 34.208 210.284 34.0187 209.676 33.64C209.074 33.2613 208.591 32.7547 208.228 32.12C207.871 31.48 207.692 30.7733 207.692 30C207.692 29.4133 207.796 28.8667 208.004 28.36C208.212 27.848 208.498 27.4 208.86 27.016C209.228 26.6267 209.655 26.3227 210.14 26.104C210.626 25.8853 211.143 25.776 211.692 25.776C212.428 25.776 213.098 25.9653 213.7 26.344C214.308 26.7227 214.791 27.232 215.148 27.872C215.511 28.512 215.692 29.2213 215.692 30C215.692 30.5813 215.588 31.1253 215.38 31.632C215.172 32.1387 214.884 32.5867 214.516 32.976C214.154 33.36 213.73 33.6613 213.244 33.88C212.764 34.0987 212.247 34.208 211.692 34.208ZM211.692 32.864C212.194 32.864 212.644 32.7333 213.044 32.472C213.45 32.2053 213.767 31.856 213.996 31.424C214.231 30.9867 214.348 30.512 214.348 30C214.348 29.4773 214.228 28.9973 213.988 28.56C213.754 28.1227 213.436 27.7733 213.036 27.512C212.636 27.2507 212.188 27.12 211.692 27.12C211.191 27.12 210.74 27.2533 210.34 27.52C209.94 27.7813 209.623 28.1307 209.388 28.568C209.154 29.0053 209.036 29.4827 209.036 30C209.036 30.5333 209.156 31.0187 209.396 31.456C209.636 31.888 209.959 32.232 210.364 32.488C210.77 32.7387 211.212 32.864 211.692 32.864ZM223.517 26H224.861V34.256C224.861 34.784 224.747 35.2747 224.517 35.728C224.293 36.1867 223.989 36.584 223.605 36.92C223.221 37.2613 222.784 37.5253 222.293 37.712C221.803 37.904 221.291 38 220.757 38C220.203 38 219.667 37.8747 219.149 37.624C218.632 37.3787 218.179 37.048 217.789 36.632C217.405 36.2213 217.128 35.76 216.957 35.248L218.189 34.688C218.291 35.056 218.472 35.3867 218.733 35.68C219 35.9787 219.309 36.2133 219.661 36.384C220.019 36.56 220.384 36.648 220.757 36.648C221.109 36.648 221.448 36.5867 221.773 36.464C222.104 36.3413 222.4 36.1707 222.661 35.952C222.928 35.7387 223.136 35.4853 223.285 35.192C223.44 34.904 223.517 34.592 223.517 34.256V32.664C223.245 33.1227 222.885 33.496 222.437 33.784C221.995 34.0667 221.477 34.208 220.885 34.208C220.32 34.208 219.789 34.0987 219.293 33.88C218.797 33.6613 218.363 33.36 217.989 32.976C217.616 32.5867 217.323 32.1387 217.109 31.632C216.896 31.1253 216.789 30.5813 216.789 30C216.789 29.4187 216.896 28.8747 217.109 28.368C217.323 27.856 217.616 27.408 217.989 27.024C218.363 26.6347 218.797 26.3307 219.293 26.112C219.789 25.8933 220.32 25.784 220.885 25.784C221.477 25.784 221.995 25.9253 222.437 26.208C222.885 26.4907 223.245 26.864 223.517 27.328V26ZM220.893 32.904C221.411 32.904 221.859 32.7707 222.237 32.504C222.621 32.2373 222.917 31.8827 223.125 31.44C223.333 30.9973 223.437 30.5173 223.437 30C223.437 29.4667 223.331 28.9813 223.117 28.544C222.909 28.1013 222.613 27.7493 222.229 27.488C221.851 27.2213 221.405 27.088 220.893 27.088C220.392 27.088 219.933 27.2187 219.517 27.48C219.101 27.7413 218.771 28.0933 218.525 28.536C218.285 28.9733 218.165 29.4613 218.165 30C218.165 30.5387 218.288 31.0293 218.533 31.472C218.784 31.9093 219.115 32.2587 219.525 32.52C219.941 32.776 220.397 32.904 220.893 32.904ZM227.085 34V22H228.429V34H227.085ZM234.092 34.208C233.356 34.208 232.684 34.0187 232.076 33.64C231.474 33.2613 230.991 32.7547 230.628 32.12C230.271 31.48 230.092 30.7733 230.092 30C230.092 29.4133 230.196 28.8667 230.404 28.36C230.612 27.848 230.898 27.4 231.26 27.016C231.628 26.6267 232.055 26.3227 232.54 26.104C233.026 25.8853 233.543 25.776 234.092 25.776C234.695 25.776 235.247 25.8987 235.748 26.144C236.255 26.384 236.687 26.72 237.044 27.152C237.407 27.584 237.676 28.0853 237.852 28.656C238.034 29.2267 238.1 29.8373 238.052 30.488H231.524C231.588 30.9413 231.738 31.3467 231.972 31.704C232.207 32.056 232.506 32.336 232.868 32.544C233.236 32.752 233.644 32.8587 234.092 32.864C234.572 32.864 235.007 32.7413 235.396 32.496C235.786 32.2453 236.1 31.904 236.34 31.472L237.708 31.792C237.388 32.5013 236.906 33.0827 236.26 33.536C235.615 33.984 234.892 34.208 234.092 34.208ZM231.484 29.432H236.7C236.658 28.984 236.514 28.576 236.268 28.208C236.023 27.8347 235.711 27.536 235.332 27.312C234.954 27.088 234.54 26.976 234.092 26.976C233.644 26.976 233.234 27.0853 232.86 27.304C232.487 27.5227 232.178 27.8187 231.932 28.192C231.692 28.56 231.543 28.9733 231.484 29.432Z" fill="#0F172A"/>
<path d="M53.8055 26.0415H53V26H44V30H49.6515C48.827 32.3285 46.6115 34 44 34C40.6865 34 38 31.3135 38 28C38 24.6865 40.6865 22 44 22C45.5295 22 46.921 22.577 47.9805 23.5195L50.809 20.691C49.023 19.0265 46.634 18 44 18C38.4775 18 34 22.4775 34 28C34 33.5225 38.4775 38 44 38C49.5225 38 54 33.5225 54 28C54 27.3295 53.931 26.675 53.8055 26.0415Z" fill="#FFC107"/>
<path d="M35.153 23.3455L38.4385 25.755C39.3275 23.554 41.4805 22 44 22C45.5295 22 46.921 22.577 47.9805 23.5195L50.809 20.691C49.023 19.0265 46.634 18 44 18C40.159 18 36.828 20.1685 35.153 23.3455Z" fill="#FF3D00"/>
<path d="M44 38C46.583 38 48.93 37.0115 50.7045 35.404L47.6095 32.785C46.5718 33.5742 45.3037 34.001 44 34C41.399 34 39.1905 32.3415 38.3585 30.027L35.0975 32.5395C36.7525 35.778 40.1135 38 44 38Z" fill="#4CAF50"/>
<path d="M53.8055 26.0415H53V26H44V30H49.6515C49.2571 31.1082 48.5467 32.0766 47.608 32.7855L47.6095 32.7845L50.7045 35.4035C50.4855 35.6025 54 33 54 28C54 27.3295 53.931 26.675 53.8055 26.0415Z" fill="#1976D2"/>
<rect x="0.5" y="0.5" width="326" height="55" rx="11.5" stroke="#E2E8F0"/>
</svg>
