<svg width="327" height="20" viewBox="0 0 327 20" fill="none" xmlns="http://www.w3.org/2000/svg">
<line x1="0.5" y1="9.5" x2="137.5" y2="9.5" stroke="#E2E8F0" stroke-linecap="round"/>
<path d="M159.436 15.182C158.774 15.182 158.151 15.0513 157.567 14.79C156.984 14.524 156.471 14.1577 156.027 13.691C155.584 13.2243 155.236 12.6853 154.984 12.074C154.732 11.458 154.606 10.8 154.606 10.1C154.606 9.4 154.732 8.74433 154.984 8.133C155.236 7.517 155.584 6.97567 156.027 6.509C156.471 6.04233 156.984 5.67833 157.567 5.417C158.151 5.151 158.774 5.018 159.436 5.018C160.104 5.018 160.729 5.151 161.312 5.417C161.896 5.67833 162.409 6.04233 162.852 6.509C163.296 6.97567 163.641 7.517 163.888 8.133C164.14 8.74433 164.266 9.4 164.266 10.1C164.266 10.8 164.14 11.458 163.888 12.074C163.641 12.6853 163.296 13.2243 162.852 13.691C162.409 14.1577 161.896 14.524 161.312 14.79C160.729 15.0513 160.104 15.182 159.436 15.182ZM159.436 14.202C159.973 14.202 160.472 14.0947 160.934 13.88C161.401 13.6607 161.809 13.362 162.159 12.984C162.514 12.606 162.789 12.1697 162.985 11.675C163.186 11.1803 163.286 10.6553 163.286 10.1C163.286 9.54 163.186 9.01267 162.985 8.518C162.785 8.01867 162.507 7.58233 162.152 7.209C161.802 6.831 161.394 6.53467 160.927 6.32C160.465 6.10533 159.968 5.998 159.436 5.998C158.9 5.998 158.398 6.10767 157.931 6.327C157.469 6.54167 157.061 6.838 156.706 7.216C156.356 7.594 156.081 8.03033 155.88 8.525C155.684 9.01967 155.586 9.54467 155.586 10.1C155.586 10.6647 155.687 11.1943 155.887 11.689C156.088 12.1837 156.363 12.62 156.713 12.998C157.068 13.376 157.476 13.6723 157.938 13.887C158.405 14.097 158.904 14.202 159.436 14.202ZM165.987 15V5.2H169.312C169.835 5.2 170.306 5.32833 170.726 5.585C171.146 5.837 171.48 6.18 171.727 6.614C171.974 7.04333 172.098 7.52633 172.098 8.063C172.098 8.54367 172 8.98 171.804 9.372C171.608 9.764 171.34 10.0883 170.999 10.345C170.663 10.6017 170.283 10.772 169.858 10.856L172.252 15H171.118L168.759 10.933H166.967V15H165.987ZM166.967 9.953H169.228C169.573 9.953 169.888 9.869 170.173 9.701C170.462 9.52833 170.691 9.29733 170.859 9.008C171.032 8.714 171.118 8.38267 171.118 8.014C171.118 7.64533 171.032 7.31633 170.859 7.027C170.691 6.733 170.462 6.502 170.173 6.334C169.888 6.16133 169.573 6.075 169.228 6.075H166.967V9.953Z" fill="#64748B"/>
<line x1="189.5" y1="9.5" x2="326.5" y2="9.5" stroke="#E2E8F0" stroke-linecap="round"/>
</svg>
