<svg width="259" height="205" viewBox="0 0 259 205" fill="none" xmlns="http://www.w3.org/2000/svg">
<path d="M123.548 39.7727L142.859 19.3182" stroke="black" stroke-width="3.40789" stroke-linecap="round"/>
<path d="M237.145 120.455L256.456 100" stroke="white" stroke-width="3.40789" stroke-linecap="round"/>
<path d="M195.57 193.863L214.882 173.409" stroke="#2D55F9" stroke-width="3.40789" stroke-linecap="round"/>
<path d="M2 110.227L21.3114 89.7727" stroke="#2D55F9" stroke-width="3.40789" stroke-linecap="round"/>
<path d="M58.1182 174.545L77.4296 154.091" stroke="white" stroke-width="3.40789" stroke-linecap="round"/>
<ellipse cx="91.7411" cy="4.54545" rx="4.54386" ry="4.54545" fill="white"/>
<ellipse cx="71.2939" cy="46.5909" rx="4.54386" ry="4.54545" fill="black"/>
<ellipse cx="36.079" cy="132.955" rx="4.54386" ry="4.54545" fill="black"/>
<ellipse cx="6.99991" cy="143.864" rx="4.54386" ry="4.54545" fill="white"/>
<ellipse cx="108.101" cy="199.545" rx="4.54386" ry="4.54545" fill="black"/>
<ellipse cx="178.53" cy="154.091" rx="5.67982" ry="5.68182" fill="#2D55F9"/>
<ellipse cx="231.921" cy="125.682" rx="5.67982" ry="5.68182" fill="black"/>
<ellipse cx="205.338" cy="43.1818" rx="5.67982" ry="5.68182" fill="white"/>
<ellipse cx="198.522" cy="95.4545" rx="3.40789" ry="3.40909" fill="black"/>
<ellipse cx="12.2233" cy="47.7273" rx="3.40789" ry="3.40909" fill="#2D55F9"/>
<ellipse cx="125.605" cy="95.1626" rx="38.1492" ry="38.1626" fill="#2D55F9"/>
<path d="M139.244 86.4817L121.886 103.845L113.208 95.1637" stroke="white" stroke-width="5.67982" stroke-linecap="round" stroke-linejoin="round"/>
</svg>
